HIERARCHY
ROOT pelvis
{
	OFFSET 0.00 0.00 0.00
	CHANNELS 6 Xposition Yposition Zposition Xrotation Yrotation Zrotation
	JOINT lfemur
	{
		OFFSET 0.00000 3.26371 0.00000
		CHANNELS 3 Xrotation Yrotation Zrotation
		JOINT ltibia
		{
			OFFSET 0.00000 0.00000 -17.39272
			CHANNELS 3 Xrotation Yrotation Zrotation
			JOINT lfoot
			{
				OFFSET 0.00000 0.00000 -17.72520
				CHANNELS 3 Xrotation Yrotation Zrotation
				JOINT ltoes
				{
					OFFSET 4.21806 0.00000 0.00000
					CHANNELS 3 Xrotation Yrotation Zrotation
				}
			}
		}
	}
	JOINT rfemur
	{
		OFFSET 0.00000 -3.26371 0.00000
		CHANNELS 3 Xrotation Yrotation Zrotation
		JOINT rtibia
		{
			OFFSET 0.00000 0.00000 -17.39272
			CHANNELS 3 Xrotation Yrotation Zrotation
			JOINT rfoot
			{
				OFFSET 0.00000 0.00000 -17.72520
				CHANNELS 3 Xrotation Yrotation Zrotation
				JOINT rtoes
				{
					OFFSET 4.21806 0.00000 0.00000
					CHANNELS 3 Xrotation Yrotation Zrotation
				}
			}
		}
	}
	JOINT thorax
	{
		OFFSET -1.96850 0.00000 6.16593
		CHANNELS 6 Xposition Yposition Zposition Xrotation Yrotation Zrotation
		JOINT head
		{
			OFFSET 0.00000 0.00000 18.21355
			CHANNELS 6 Xposition Yposition Zposition Xrotation Yrotation Zrotation
		}
		JOINT lclavicle
		{
			OFFSET 0.00000 0.00000 15.13875
			CHANNELS 3 Xrotation Yrotation Zrotation
			JOINT lhumerus
			{
				OFFSET 0.00000 7.18963 -1.52650
				CHANNELS 3 Xrotation Yrotation Zrotation
				JOINT lradius
				{
					OFFSET 0.00000 0.00000 -10.12096
					CHANNELS 3 Xrotation Yrotation Zrotation
					JOINT lhand
					{
						OFFSET 0.00000 0.00000 -10.45726
						CHANNELS 3 Xrotation Yrotation Zrotation
					}
				}
			}
		}
		JOINT rclavicle
		{
			OFFSET 0.00000 0.00000 15.13875
			CHANNELS 3 Xrotation Yrotation Zrotation
			JOINT rhumerus
			{
				OFFSET 0.00000 -7.18963 -1.52650
				CHANNELS 3 Xrotation Yrotation Zrotation
				JOINT rradius
				{
					OFFSET 0.00000 0.00000 -10.12096
					CHANNELS 3 Xrotation Yrotation Zrotation
					JOINT rhand
					{
						OFFSET 0.00000 0.00000 -10.45726
						CHANNELS 3 Xrotation Yrotation Zrotation
					}
				}
			}
		}
	}
}
MOTION
Frames: 15
Frame Time: 0.008333
 -3.2996 11.6660 30.4143 -6.4103 10.5029 -139.7614 13.7930 15.1391 -0.3600 -0.0000 46.7077 0.0000 -0.0000 -21.2296 30.6663 0.0000 -23.8206 -0.0000 -30.1044 -27.9269 -28.7971 -0.0000 45.5232 0.0000 0.0000 37.2416 10.2726 0.0000 -57.7678 -0.0000 -0.9486 13.6144 35.7514 2.3826 10.2493 1.1155 0.4086 12.4346 54.1491 3.5223 3.9310 -40.9960 -13.8932 0.0000 -6.7887 41.8737 46.3723 -24.8920 -180.0000 -74.0043 -122.6659 -23.6251 27.4719 -0.0000 4.8553 0.0000 19.7592 -89.9005 -28.0297 -52.7079 -0.0000 -9.4120 45.6254 5.1593 1.4914 0.0000
 -3.5014 11.7693 30.2898 -6.4230 10.6396 -140.9754 13.7976 15.6683 0.6700 -0.0000 46.9325 0.0000 -0.0000 -21.2930 31.2431 0.0000 -23.4433 -0.0000 -29.7541 -29.6066 -27.5293 -0.0000 47.7551 0.0000 0.0000 36.3917 9.9610 0.0000 -56.9049 -0.0000 -1.1269 13.7235 35.6540 2.3442 11.0799 2.3308 0.0486 12.4137 54.0263 3.0196 3.1467 -40.8759 -13.8461 0.0000 -6.8565 40.5192 45.7429 -23.7817 -180.0000 -74.0279 -125.0187 -23.5738 26.9874 0.0000 4.4547 0.0000 19.6960 -90.4700 -28.0277 -53.0184 0.0000 -10.3668 44.5225 5.0152 1.5841 0.0000
 -3.7155 11.8738 30.1775 -6.4590 10.7874 -142.0881 14.0071 16.3120 1.7654 -0.0000 46.9464 0.0000 -0.0000 -21.3553 31.4092 -0.0000 -23.0259 -0.0000 -29.5798 -31.0001 -26.9998 -0.0000 49.9417 0.0000 0.0000 35.1407 9.8449 0.0000 -55.1793 -0.0000 -1.2914 13.8064 35.5554 2.3853 11.8801 3.3942 -0.3221 12.4153 53.8991 2.3427 2.4662 -40.5374 -13.8484 0.0000 -6.8589 39.2427 44.9240 -22.9132 180.0000 -73.8898 -126.9342 -21.9478 26.9343 -0.0000 4.1088 0.0000 19.8262 -91.1568 -27.8460 -53.5382 -0.0000 -10.8964 46.6002 5.6671 2.2024 0.0000
 -3.9303 11.9596 30.0802 -6.4494 10.9592 -143.0753 14.3334 17.0762 2.6824 -0.0000 46.7117 0.0000 -0.0000 -21.1559 31.2329 0.0000 -23.0440 -0.0000 -29.3413 -31.9874 -26.8793 -0.0000 51.5771 0.0000 0.0000 34.2325 9.7496 0.0000 -54.2424 -0.0000 -1.4576 13.8731 35.4674 2.4801 12.5744 4.2213 -0.6943 12.4483 53.7838 1.6659 2.1073 -39.6813 -13.8324 0.0000 -6.7262 38.2286 43.9357 -22.4612 180.0000 -73.9774 -129.4772 -20.9631 26.4213 -0.0000 3.6819 0.0000 20.0321 -91.7363 -27.7883 -53.9030 0.0000 -10.8501 49.2267 5.2264 2.1022 -0.0000
 -4.1345 12.0480 29.9981 -6.3591 11.1549 -143.9187 14.8625 17.8561 3.4831 -0.0000 46.2555 0.0000 0.0000 -20.3603 30.8435 0.0000 -24.6336 -0.0000 -29.1198 -32.6787 -27.2569 -0.0000 52.8163 0.0000 0.0000 33.7881 9.7629 0.0000 -53.9822 -0.0000 -1.6167 13.9402 35.3855 2.6398 13.2354 4.8606 -1.0392 12.5133 53.7030 1.1478 2.0012 -38.3289 -13.8596 0.0000 -6.4327 37.5728 42.6949 -22.4347 -180.0000 -73.9559 -131.4969 -18.1961 26.2619 -0.0000 3.2226 0.0000 20.3142 -92.0027 -27.5411 -54.2934 -0.0000 -11.4851 51.8377 6.2439 2.9840 0.0000
 -4.3731 12.1865 29.9374 -5.0172 12.1615 -144.3431 17.5511 18.3185 4.0479 -0.0000 46.0698 0.0000 -0.0000 -19.9507 29.4276 -0.0000 -25.3797 -0.0000 -27.3929 -32.6561 -28.1214 -0.0000 53.3326 0.0000 0.0000 33.5538 9.5981 0.0000 -53.9553 -0.0000 -1.7616 13.9798 35.3216 4.4974 13.7342 4.7527 -1.3595 12.6372 53.6515 0.6538 2.3726 -36.2482 -13.9559 0.0000 -6.1479 36.9506 41.4736 -22.4414 180.0000 -74.2951 -133.4360 -16.0907 25.8307 -0.0000 2.6736 0.0000 20.5542 -92.1206 -27.6254 -55.7526 -0.0000 -12.0165 53.4190 6.6311 2.7955 -0.0000
 -4.5251 12.2457 29.8787 -5.0132 12.1155 -144.2512 18.1959 18.6460 4.1243 -0.0000 45.5446 0.0000 -0.0000 -19.2496 28.4656 0.0000 -27.1999 0.0000 -27.9848 -32.6277 -29.6276 -0.0000 54.0081 0.0000 0.0000 33.4674 10.0303 0.0000 -54.6094 -0.0000 -1.9615 14.0400 35.2621 4.5337 14.0220 4.5625 -1.6515 12.7933 53.6238 0.4765 3.0301 -33.7221 -14.2139 0.0000 -5.9974 37.1009 40.6655 -22.5839 180.0000 -74.5420 -134.1037 -15.2023 25.2142 -0.0000 2.4035 0.0000 20.4717 -91.7664 -27.6389 -55.5958 -0.0000 -14.1262 51.2875 8.2478 3.0977 -0.0000
 -4.6697 12.3313 29.8322 -4.6974 11.9976 -143.9157 19.1736 18.5651 3.9359 -0.0000 45.0699 0.0000 -0.0000 -18.7318 27.4376 0.0000 -28.3205 -0.0000 -28.3364 -32.6022 -31.0571 -0.0000 54.4660 0.0000 0.0000 32.9757 10.2306 0.0000 -54.2984 -0.0000 -2.1039 14.0722 35.2207 5.0543 14.0837 3.8274 -1.9438 12.9941 53.6257 0.0988 3.7424 -29.9343 -14.6267 0.0000 -5.5303 37.2224 39.5175 -22.6481 180.0000 -75.0554 -134.5050 -15.1162 24.6179 0.0000 1.9153 0.0000 20.5337 -91.7801 -28.4166 -57.4120 -0.0000 -14.9629 48.3575 6.9474 1.8006 0.0000
 -4.8032 12.3990 29.8024 -4.5532 11.8212 -143.3203 20.0385 18.4771 3.6251 -0.0000 44.4755 0.0000 -0.0000 -18.2091 26.2251 0.0000 -29.5859 0.0000 -28.8897 -32.3445 -32.4386 -0.0000 54.7753 0.0000 0.0000 32.6704 10.6336 0.0000 -54.7222 -0.0000 -2.2967 14.1184 35.1781 5.3218 14.0420 3.2015 -2.2594 13.2086 53.6292 -0.2603 4.4362 -25.9108 -14.8905 0.0000 -5.2507 37.6174 38.6438 -22.9865 180.0000 -75.4261 -134.4192 -15.3517 23.6169 -0.0000 1.5983 0.0000 20.3454 -91.1703 -28.8566 -57.7547 -0.0000 -17.4076 43.5582 6.7627 0.4543 0.0000
 -4.9120 12.4689 29.7829 -4.4494 11.5693 -142.4058 20.8704 18.1573 3.0431 -0.0000 43.9286 0.0000 -0.0000 -17.6860 25.0630 0.0000 -30.8211 0.0000 -29.5158 -31.9795 -33.6890 -0.0000 55.0108 0.0000 0.0000 32.2140 10.7695 0.0000 -55.1032 -0.0000 -2.4710 14.1774 35.1466 5.6159 14.0155 2.3609 -2.6101 13.4425 53.6379 -0.8849 4.9140 -21.3747 -15.2611 0.0000 -4.9720 38.3084 37.7788 -23.4861 180.0000 -75.6368 -134.4202 -15.3590 21.4988 -0.0000 1.2579 0.0000 19.9722 -90.3512 -29.4544 -57.5890 -0.0000 -20.5643 38.7491 6.7876 -0.8007 0.0000
 -5.0023 12.5448 29.7775 -4.4029 11.2556 -141.3114 21.6180 17.6959 2.3394 -0.0000 43.4051 0.0000 0.0000 -17.1514 23.9717 0.0000 -32.0138 -0.0000 -30.1746 -31.6334 -34.7755 -0.0000 55.2916 0.0000 0.0000 31.6354 10.6345 0.0000 -55.3352 -0.0000 -2.6354 14.2508 35.1293 5.8762 14.0216 1.5274 -2.9868 13.6820 53.6520 -1.7179 5.2116 -16.6008 -15.6584 0.0000 -4.7675 39.0525 36.9119 -24.0475 -180.0000 -75.5465 -134.3004 -14.3694 18.6275 -0.0000 1.0831 0.0000 19.3483 -89.5041 -30.1565 -56.6422 -0.0000 -24.2821 34.8426 7.4151 -1.7006 0.0000
 -5.0772 12.6290 29.7820 -4.3994 10.8412 -140.0722 22.2473 17.0442 1.5805 -0.0000 42.9218 0.0000 -0.0000 -16.6079 22.9208 0.0000 -33.1144 0.0000 -30.8968 -31.3838 -35.7517 -0.0000 55.6541 0.0000 0.0000 30.9409 10.1126 0.0000 -55.2593 -0.0000 -2.7755 14.3365 35.1296 6.1133 14.0701 0.7258 -3.4137 13.9081 53.6503 -2.7058 5.1048 -11.4119 -16.0875 0.0000 -4.6175 39.7626 35.9546 -24.4637 180.0000 -75.3774 -134.7024 -14.1836 14.9571 -0.0000 1.1082 0.0000 18.6638 -88.8377 -30.6980 -54.9891 0.0000 -28.3862 32.2554 8.5787 -1.9287 0.0000
 -5.1361 12.7231 29.7957 -4.4252 10.2851 -138.7882 22.6813 16.2099 0.8444 -0.0000 42.4846 0.0000 -0.0000 -16.1123 21.9566 0.0000 -33.8550 -0.0000 -31.6410 -31.3102 -36.4852 -0.0000 56.0195 0.0000 0.0000 30.1496 9.1611 0.0000 -54.8153 -0.0000 -2.9012 14.4743 35.1481 6.1999 14.2410 0.4755 -3.8892 14.1269 53.6646 -3.8362 4.7250 -6.3641 -16.5022 0.0000 -4.7000 40.8096 34.5363 -24.8486 180.0000 -74.9863 -135.1827 -14.3877 11.8509 -0.0000 1.4081 -0.0000 17.5032 -88.5181 -30.9973 -52.5693 0.0000 -32.8955 30.2045 10.0460 -2.1079 0.0000
 -5.1664 12.8254 29.8321 -4.5394 9.7472 -137.3661 22.9726 15.2786 -0.0096 -0.0000 42.1114 0.0000 0.0000 -15.5556 21.2450 0.0000 -34.5117 -0.0000 -32.1986 -31.1609 -36.7198 -0.0000 56.1229 0.0000 0.0000 29.6415 7.8201 0.0000 -54.8366 -0.0000 -3.0147 14.6232 35.1902 6.2412 14.4716 0.1277 -4.4172 14.3105 53.6825 -4.9544 4.2292 -0.8938 -16.7944 0.0000 -4.8542 41.2979 33.0633 -24.4687 180.0000 -74.5578 -136.1754 -15.1603 9.1175 -0.0000 1.6928 -0.0000 16.5956 -87.8232 -31.0627 -50.2426 -0.0000 -37.7925 28.9113 11.8632 -1.9649 0.0000
 -5.1876 12.9399 29.8888 -4.7114 9.2154 -135.8727 23.1531 14.2890 -0.9070 -0.0000 41.7742 0.0000 -0.0000 -14.8725 20.7460 0.0000 -35.0491 -0.0000 -32.5878 -30.9771 -36.5431 -0.0000 56.1187 0.0000 0.0000 28.9921 5.9832 0.0000 -54.6722 -0.0000 -3.1222 14.7993 35.2492 6.2586 14.8499 -0.0523 -4.9742 14.4634 53.7197 -6.0909 3.6772 4.5184 -17.0406 0.0000 -5.0016 41.6769 31.1155 -23.7875 -180.0000 -73.8638 -137.1843 -14.7084 7.4795 -0.0000 1.9509 0.0000 15.7789 -87.1247 -30.6756 -47.7320 -0.0000 -43.0687 26.9800 13.8913 -1.6024 -0.0000
